<svg width="40" height="40" viewBox="0 0 40 40" fill="none" xmlns="http://www.w3.org/2000/svg">
<path fill-rule="evenodd" clip-rule="evenodd" d="M40 6H0V34H40V6ZM28.4594 28.5221C29.0901 28.765 29.8465 28.8865 30.7286 28.8865C31.6661 28.8865 32.4949 28.7437 33.2151 28.4582C33.9395 28.1769 34.5063 27.7551 34.9154 27.1926C35.3245 26.6301 35.529 25.9312 35.529 25.096V15.1819H32.8252V16.8311H32.7229C32.5993 16.5669 32.4225 16.2984 32.1924 16.0257C31.9665 15.7487 31.6682 15.5186 31.2975 15.3353C30.9268 15.1478 30.4665 15.0541 29.9168 15.0541C29.1966 15.0541 28.534 15.2394 27.9289 15.6102C27.328 15.9809 26.8465 16.5392 26.4843 17.2849C26.1221 18.0306 25.941 18.9596 25.941 20.0718C25.941 21.1585 26.1178 22.0576 26.4715 22.7693C26.8295 23.4767 27.3089 24.0029 27.9097 24.3481C28.5148 24.689 29.186 24.8595 29.9232 24.8595C30.4431 24.8595 30.8905 24.7828 31.2655 24.6294C31.6405 24.4759 31.9474 24.2778 32.186 24.0349C32.4246 23.792 32.6036 23.5342 32.7229 23.2615H32.838V25.0576C32.838 25.7309 32.6441 26.2103 32.2563 26.4958C31.8728 26.7856 31.3849 26.9305 30.7925 26.9305C30.3962 26.9305 30.0596 26.8772 29.7826 26.7707C29.5099 26.6684 29.2904 26.532 29.1242 26.3616C28.958 26.1911 28.8366 26.0079 28.7599 25.8119L26.2414 26.1507C26.3522 26.6663 26.593 27.1308 26.9637 27.5441C27.3344 27.9575 27.833 28.2835 28.4594 28.5221ZM31.8983 22.488C31.5958 22.7053 31.2251 22.814 30.7861 22.814C30.3387 22.814 29.9616 22.7032 29.6547 22.4816C29.3522 22.2558 29.1199 21.9383 28.958 21.5292C28.8003 21.1159 28.7215 20.6258 28.7215 20.059C28.7215 19.5008 28.8003 19.0086 28.958 18.5825C29.1157 18.1563 29.3479 17.824 29.6547 17.5853C29.9616 17.3424 30.3387 17.221 30.7861 17.221C31.2251 17.221 31.5979 17.3382 31.9047 17.5725C32.2116 17.8069 32.4459 18.1372 32.6079 18.5633C32.7698 18.9852 32.8508 19.4838 32.8508 20.059C32.8508 20.6343 32.7677 21.1286 32.6015 21.542C32.4395 21.9511 32.2052 22.2664 31.8983 22.488ZM17.8311 19.324V25.0001H15.108V15.1819H17.7032V16.9142H17.8183C18.0356 16.3431 18.3999 15.8914 18.9113 15.559C19.4227 15.2224 20.0427 15.0541 20.7714 15.0541C21.4532 15.0541 22.0477 15.2032 22.5548 15.5015C23.0619 15.7998 23.4561 16.2259 23.7373 16.7799C24.0186 17.3296 24.1592 17.9859 24.1592 18.7487V25.0001H21.4362V19.2345C21.4404 18.6336 21.287 18.1649 20.9759 17.8282C20.6649 17.4873 20.2366 17.3169 19.6911 17.3169C19.3247 17.3169 19.0008 17.3957 18.7195 17.5534C18.4426 17.711 18.2252 17.9411 18.0676 18.2437C17.9142 18.542 17.8353 18.9021 17.8311 19.324ZM4.1377 11.9092V25.0001H12.9843V22.7181H6.90545V19.5924H12.5049V17.3105H6.90545V14.1911H12.9587V11.9092H4.1377Z" fill="black" style="fill:black;fill-opacity:1;"/>
</svg>
