<svg width="2092" height="740" viewBox="0 0 2092 740" fill="none" xmlns="http://www.w3.org/2000/svg">
<path fill-rule="evenodd" clip-rule="evenodd" d="M1592 0H1724V44H1793C1851 44 1939 104 1939 193.5V298H1958C2034 298 2092 360 2092 427V625C2092 680 2054.5 738 1958 738C1861.5 738 1823.5 672.5 1823.5 625H1958V473C1958 435 1931.5 435 1910.5 435H1725.5V738H1591V435H1450V298H1591L1592 183.5H1503V47.5H1592V0ZM274 2.5H412.5V618C412.5 689 374.5 740 307.5 740C240.5 740 182 715.5 182 628H274V2.5ZM510 190.5H647C645 265.333 649.5 436 683.5 520C671.9 546.8 626.333 628.5 605 666C573.333 644.5 510 519.3 510 190.5ZM984 2.5H854C819.333 71.3333 746.1 217 730.5 249C711 289 726 314.5 759.5 314.5H854V330C833.167 372.5 788.9 463 778.5 485C765.5 512.5 765 550 808 550H965L1026.5 440.5H954C934 440.5 930 431 941.5 406.5C950.7 386.9 1021.33 254.333 1055.5 190.5H922.5C903.5 222.5 873 202 893.5 170C909.9 144.4 960.667 47.6667 984 2.5ZM752.5 593C756 596 765.1 602 773.5 602H965L889.5 737.5H718C699.2 737.5 687.167 726.833 683.5 721.5L752.5 593ZM1400 47.5H1083.5V183.5H1173V608.5H1038L973 737.5H1444V608.5H1311.5V183.5H1400V47.5ZM1958 126.5V178H2018.5C2059 178 2092 158 2092 112.5C2092 67 2059.89 46.5 2033 46.5C1987 46.5 1958 71 1958 126.5ZM1780 183.5H1725.5L1724 298H1802V209C1802 197.5 1799 183.5 1780 183.5ZM35.7969 191H173.797C176.464 327 161.397 612.1 79.7969 664.5C61.0123 632 16.5 551 0.296875 521C12.1302 503.667 35.7969 413.4 35.7969 191Z" fill="white" style="fill:white;fill-opacity:1;"/>
</svg>
