<svg width="40" height="40" viewBox="0 0 40 40" fill="none" xmlns="http://www.w3.org/2000/svg">
<path fill-rule="evenodd" clip-rule="evenodd" d="M20 10.75C12.8722 10.75 7.6001 13.2984 6.01417 14.4262L3.98584 11.5738C6.14992 10.0349 12.1279 7.25 20 7.25C27.8722 7.25 33.8501 10.0349 36.0142 11.5738L33.9858 14.4262C32.3999 13.2984 27.1279 10.75 20 10.75ZM7.15296 22.4172C8.05633 23.5119 9.47052 24.9332 11.2452 26.2246C13.7724 28.0637 16.8399 29.5 20.0001 29.5C23.1603 29.5 26.2279 28.0637 28.755 26.2246C30.5297 24.9332 31.9439 23.5119 32.8473 22.4172C31.3391 21.6008 28.9731 20.6533 25.9473 20.0651C25.5567 23.9799 23.0429 27 20 27C16.9572 27 14.4434 23.9799 14.0527 20.0652C11.027 20.6534 8.66105 21.6009 7.15296 22.4172ZM4.10011 20.8C6.38401 19.0871 12.2072 16.5 20.0001 16.5C27.793 16.5 33.6162 19.0871 35.9001 20.8C36.515 21.2612 36.6818 22.1126 36.2864 22.7717C35.4134 24.2266 33.3121 26.6187 30.5202 28.6504C27.7224 30.6863 24.0399 32.5 20.0001 32.5C15.9603 32.5 12.2779 30.6863 9.48002 28.6504C6.68815 26.6187 4.58679 24.2266 3.71387 22.7717C3.3184 22.1126 3.48518 21.2612 4.10011 20.8Z" fill="black" style="fill:black;fill-opacity:1;"/>
</svg>
