<svg width="40" height="40" viewBox="0 0 40 40" fill="none" xmlns="http://www.w3.org/2000/svg">
<path fill-rule="evenodd" clip-rule="evenodd" d="M33.4757 20.7404C31.3305 26.4929 26.0592 30.5 20 30.5C13.9408 30.5 8.66954 26.4929 6.52428 20.7404C7.02588 21.0097 7.561 21.2581 8.12173 21.4859C11.237 22.7515 15.4373 23.5 20 23.5C24.5627 23.5 28.763 22.7515 31.8783 21.4859C32.439 21.2581 32.9741 21.0097 33.4757 20.7404ZM34.4865 15.6765C34.4356 16.0148 34.23 16.4427 33.7036 16.9483C33.4419 17.1996 33.1175 17.4526 32.7307 17.7018C30.8415 15.6672 25.8547 14.2139 20 14.2139C14.1453 14.2139 9.15851 15.6672 7.26931 17.7018C6.88253 17.4526 6.55815 17.1996 6.29643 16.9483C5.77001 16.4427 5.56445 16.0148 5.51347 15.6765C5.50976 15.5836 5.50681 15.4904 5.50463 15.3971C5.5358 15.0481 5.73109 14.5947 6.29643 14.0517C6.92315 13.4498 7.90921 12.8385 9.25086 12.2935C11.9265 11.2065 15.7262 10.5 20 10.5C24.2738 10.5 28.0735 11.2065 30.7491 12.2935C32.0908 12.8385 33.0768 13.4498 33.7036 14.0517C34.2689 14.5947 34.4642 15.0481 34.4954 15.3971C34.4932 15.4904 34.4902 15.5836 34.4865 15.6765ZM37.4971 15.3417C37.499 15.228 37.5 15.1141 37.5 15H37.4704C37.3254 13.7808 36.6604 12.7321 35.7817 11.8881C34.7891 10.9347 33.4321 10.1453 31.8783 9.51411C28.763 8.24854 24.5627 7.5 20 7.5C15.4373 7.5 11.237 8.24854 8.12173 9.51411C6.56794 10.1453 5.21085 10.9347 4.21829 11.8881C3.33959 12.7321 2.67463 13.7808 2.52957 15H2.5C2.5 15.1141 2.50098 15.228 2.50294 15.3417C2.50099 15.3942 2.5 15.4469 2.5 15.5C2.5 15.6456 2.50744 15.7891 2.52186 15.9303C2.97904 25.6376 10.5507 33.5 20 33.5C29.4493 33.5 37.021 25.6376 37.4781 15.9303C37.4926 15.7891 37.5 15.6456 37.5 15.5C37.5 15.4469 37.499 15.3941 37.4971 15.3417Z" fill="black" style="fill:black;fill-opacity:1;"/>
</svg>
