<svg width="40" height="40" viewBox="0 0 40 40" fill="none" xmlns="http://www.w3.org/2000/svg">
<path fill-rule="evenodd" clip-rule="evenodd" d="M0 6H40V34H0V6ZM25.7883 15.668H32.1221C31.53 17.2342 30.7833 18.6082 29.882 19.79C29.6068 20.1477 29.316 20.4906 29.0097 20.8187C28.6621 20.4512 28.3349 20.0663 28.028 19.664C27.1137 18.4652 26.3671 17.1332 25.7883 15.668ZM30.26 25.1C29.7808 24.7699 29.3232 24.4188 28.887 24.0467C28.4568 24.3933 28.0084 24.7204 27.542 25.028C25.898 26.108 23.996 26.99 21.836 27.674C21.764 27.482 21.644 27.254 21.476 26.99C21.308 26.726 21.134 26.462 20.954 26.198C20.786 25.946 20.624 25.736 20.468 25.568C22.544 25.016 24.362 24.266 25.922 23.318C26.3808 23.0391 26.8188 22.7406 27.2361 22.4223C26.8473 21.9811 26.4813 21.5176 26.138 21.032C25.0509 19.4774 24.1347 17.6894 23.3892 15.668H20.792V13.562H27.884V10.7H30.098V13.562H37.28V15.668H34.6638C33.9216 17.7143 32.9757 19.4963 31.826 21.014C31.4723 21.4808 31.0989 21.9263 30.7056 22.3504C31.1237 22.6732 31.5632 22.9777 32.024 23.264C33.62 24.248 35.48 24.9799 37.604 25.4599C37.436 25.628 37.25 25.844 37.046 26.108C36.854 26.372 36.668 26.636 36.488 26.9C36.308 27.176 36.164 27.416 36.056 27.62C33.812 27.044 31.88 26.204 30.26 25.1ZM9.81199 13.832H3.58398V22.958H5.74398V21.968H9.81199V27.602H12.098V21.968H16.184V22.868H18.452V13.832H12.098V10.7H9.81199V13.832ZM9.81199 15.956H5.74398V19.844H9.81199V15.956ZM12.098 19.844H16.184V15.956H12.098V19.844Z" fill="black" style="fill:black;fill-opacity:1;"/>
</svg>
